#define headphones_width 10
#define headphones_height 10
static unsigned char headphones_bits[] = {
   0x78, 0x00, 0xcc, 0x00, 0x86, 0x01, 0x03, 0x03, 0x03, 0x03, 0x87, 0x03,
   0xcf, 0x03, 0xce, 0x01, 0xce, 0x01, 0xcc, 0x00 };
